HIERARCHY
ROOT Hips
{
	OFFSET -14.64140 90.27770 -84.91600
	CHANNELS 6 Xposition Yposition Zposition Zrotation Xrotation Yrotation
	JOINT Spine
	{
		OFFSET 0.00000 13.20850 -1.60436
		CHANNELS 3 Zrotation Xrotation Yrotation
		JOINT Spine1
		{
			OFFSET 0.00000 8.61716 0.00000
			CHANNELS 3 Zrotation Xrotation Yrotation
			JOINT Spine2
			{
				OFFSET 0.00000 8.61717 0.00000
				CHANNELS 3 Zrotation Xrotation Yrotation
				JOINT Spine3
				{
					OFFSET 0.00000 8.61717 0.00000
					CHANNELS 3 Zrotation Xrotation Yrotation
					JOINT Neck
					{
						OFFSET 0.00000 11.07920 1.10792
						CHANNELS 3 Zrotation Xrotation Yrotation
						JOINT Neck1
						{
							OFFSET 0.00000 7.08032 0.00000
							CHANNELS 3 Zrotation Xrotation Yrotation
							JOINT Head
							{
								OFFSET 0.00000 7.08031 0.00000
								CHANNELS 3 Zrotation Xrotation Yrotation
								End site
								{
									OFFSET 0.00000 0.00000 0.00000
								}
							}
						}
					}
					JOINT RightShoulder
					{
						OFFSET -0.01000 7.91373 5.19711
						CHANNELS 3 Zrotation Xrotation Yrotation
						JOINT RightArm
						{
							OFFSET -18.41580 0.00000 0.00000
							CHANNELS 3 Zrotation Xrotation Yrotation
							JOINT RightForeArm
							{
								OFFSET -29.11090 0.00000 0.00000
								CHANNELS 3 Zrotation Xrotation Yrotation
								JOINT RightHand
								{
									OFFSET -24.65040 0.00000 0.00000
									CHANNELS 3 Zrotation Xrotation Yrotation
									JOINT RightHandThumb1
									{
										OFFSET -5.35114 -0.85590 3.97906
										CHANNELS 3 Zrotation Xrotation Yrotation
										JOINT RightHandThumb2
										{
											OFFSET -4.52789 0.00000 0.00000
											CHANNELS 3 Zrotation Xrotation Yrotation
											JOINT RightHandThumb3
											{
												OFFSET -2.46976 0.00000 0.00000
												CHANNELS 3 Zrotation Xrotation Yrotation
												End site
												{
													OFFSET 0.00000 0.00000 0.00000
												}
											}
										}
									}
									JOINT RightHandIndex1
									{
										OFFSET -14.26970 0.00000 2.88139
										CHANNELS 3 Zrotation Xrotation Yrotation
										JOINT RightHandIndex2
										{
											OFFSET -5.48836 0.00000 0.00000
											CHANNELS 3 Zrotation Xrotation Yrotation
											JOINT RightHandIndex3
											{
												OFFSET -3.01859 0.00000 0.00000
												CHANNELS 3 Zrotation Xrotation Yrotation
												End site
												{
													OFFSET 0.00000 0.00000 0.00000
												}
											}
										}
									}
									JOINT RightHandMiddle1
									{
										OFFSET -14.26970 0.00000 -0.09147
										CHANNELS 3 Zrotation Xrotation Yrotation
										JOINT RightHandMiddle2
										{
											OFFSET -6.17441 0.00000 0.00000
											CHANNELS 3 Zrotation Xrotation Yrotation
											JOINT RightHandMiddle3
											{
												OFFSET -3.56743 0.00000 0.00000
												CHANNELS 3 Zrotation Xrotation Yrotation
												End site
												{
													OFFSET 0.00000 0.00000 0.00000
												}
											}
										}
									}
									JOINT RightHandRing1
									{
										OFFSET -12.69180 0.00000 -3.06433
										CHANNELS 3 Zrotation Xrotation Yrotation
										JOINT RightHandRing2
										{
											OFFSET -5.62556 0.00000 0.00000
											CHANNELS 3 Zrotation Xrotation Yrotation
											JOINT RightHandRing3
											{
												OFFSET -3.56744 0.00000 0.00000
												CHANNELS 3 Zrotation Xrotation Yrotation
												End site
												{
													OFFSET 0.00000 0.00000 0.00000
												}
											}
										}
									}
									JOINT RightHandPinky1
									{
										OFFSET -11.11390 0.00000 -6.03719
										CHANNELS 3 Zrotation Xrotation Yrotation
										JOINT RightHandPinky2
										{
											OFFSET -4.52789 0.00000 0.00000
											CHANNELS 3 Zrotation Xrotation Yrotation
											JOINT RightHandPinky3
											{
												OFFSET -2.46976 0.00000 0.00000
												CHANNELS 3 Zrotation Xrotation Yrotation
												End site
												{
													OFFSET 0.00000 0.00000 0.00000
												}
											}
										}
									}
								}
							}
						}
					}
					JOINT LeftShoulder
					{
						OFFSET 0.01000 7.91373 5.19711
						CHANNELS 3 Zrotation Xrotation Yrotation
						JOINT LeftArm
						{
							OFFSET 18.41580 0.00000 0.00000
							CHANNELS 3 Zrotation Xrotation Yrotation
							JOINT LeftForeArm
							{
								OFFSET 29.11090 0.00000 0.00000
								CHANNELS 3 Zrotation Xrotation Yrotation
								JOINT LeftHand
								{
									OFFSET 24.65040 0.00000 0.00000
									CHANNELS 3 Zrotation Xrotation Yrotation
									JOINT LeftHandThumb1
									{
										OFFSET 5.35114 -0.85590 3.97906
										CHANNELS 3 Zrotation Xrotation Yrotation
										JOINT LeftHandThumb2
										{
											OFFSET 4.52789 0.00000 0.00000
											CHANNELS 3 Zrotation Xrotation Yrotation
											JOINT LeftHandThumb3
											{
												OFFSET 2.46977 0.00000 0.00000
												CHANNELS 3 Zrotation Xrotation Yrotation
												End site
												{
													OFFSET 0.00000 0.00000 0.00000
												}
											}
										}
									}
									JOINT LeftHandIndex1
									{
										OFFSET 14.26970 0.00000 2.88139
										CHANNELS 3 Zrotation Xrotation Yrotation
										JOINT LeftHandIndex2
										{
											OFFSET 5.48836 0.00000 0.00000
											CHANNELS 3 Zrotation Xrotation Yrotation
											JOINT LeftHandIndex3
											{
												OFFSET 3.01859 0.00000 0.00000
												CHANNELS 3 Zrotation Xrotation Yrotation
												End site
												{
													OFFSET 0.00000 0.00000 0.00000
												}
											}
										}
									}
									JOINT LeftHandMiddle1
									{
										OFFSET 14.26970 0.00000 -0.09147
										CHANNELS 3 Zrotation Xrotation Yrotation
										JOINT LeftHandMiddle2
										{
											OFFSET 6.17440 0.00000 0.00000
											CHANNELS 3 Zrotation Xrotation Yrotation
											JOINT LeftHandMiddle3
											{
												OFFSET 3.56744 0.00000 0.00000
												CHANNELS 3 Zrotation Xrotation Yrotation
												End site
												{
													OFFSET 0.00000 0.00000 0.00000
												}
											}
										}
									}
									JOINT LeftHandRing1
									{
										OFFSET 12.69180 0.00000 -3.06433
										CHANNELS 3 Zrotation Xrotation Yrotation
										JOINT LeftHandRing2
										{
											OFFSET 5.62556 0.00000 0.00000
											CHANNELS 3 Zrotation Xrotation Yrotation
											JOINT LeftHandRing3
											{
												OFFSET 3.56744 0.00000 0.00000
												CHANNELS 3 Zrotation Xrotation Yrotation
												End site
												{
													OFFSET 0.00000 0.00000 0.00000
												}
											}
										}
									}
									JOINT LeftHandPinky1
									{
										OFFSET 11.11390 0.00000 -6.03719
										CHANNELS 3 Zrotation Xrotation Yrotation
										JOINT LeftHandPinky2
										{
											OFFSET 4.52789 0.00000 0.00000
											CHANNELS 3 Zrotation Xrotation Yrotation
											JOINT LeftHandPinky3
											{
												OFFSET 2.46976 0.00000 0.00000
												CHANNELS 3 Zrotation Xrotation Yrotation
												End site
												{
													OFFSET 0.00000 0.00000 0.00000
												}
											}
										}
									}
								}
							}
						}
					}
					JOINT pCube4
					{
						OFFSET 0.00000 10.91090 1.10792
						CHANNELS 3 Zrotation Xrotation Yrotation
						End site
						{
							OFFSET 0.00000 0.00000 0.00000
						}
					}
				}
			}
		}
	}
	JOINT RightUpLeg
	{
		OFFSET -9.98441 0.00000 0.00000
		CHANNELS 3 Zrotation Xrotation Yrotation
		JOINT RightLeg
		{
			OFFSET 0.00000 -42.11790 0.00000
			CHANNELS 3 Zrotation Xrotation Yrotation
			JOINT RightFoot
			{
				OFFSET 0.00000 -45.00020 -0.00001
				CHANNELS 3 Zrotation Xrotation Yrotation
				JOINT RightForeFoot
				{
					OFFSET 0.00000 -3.74820 0.00000
					CHANNELS 3 Zrotation Xrotation Yrotation
					JOINT RightToeBase
					{
						OFFSET 0.00000 0.06325 14.43120
						CHANNELS 3 Zrotation Xrotation Yrotation
						End site
						{
							OFFSET 0.00000 0.00000 0.00000
						}
					}
				}
			}
		}
	}
	JOINT LeftUpLeg
	{
		OFFSET 9.98441 0.00000 0.00000
		CHANNELS 3 Zrotation Xrotation Yrotation
		JOINT LeftLeg
		{
			OFFSET 0.00000 -42.11800 0.00000
			CHANNELS 3 Zrotation Xrotation Yrotation
			JOINT LeftFoot
			{
				OFFSET 0.00000 -45.00070 0.00000
				CHANNELS 3 Zrotation Xrotation Yrotation
				JOINT LeftForeFoot
				{
					OFFSET 0.00000 -3.74824 0.00000
					CHANNELS 3 Zrotation Xrotation Yrotation
					JOINT LeftToeBase
					{
						OFFSET 0.00000 0.06325 14.43110
						CHANNELS 3 Zrotation Xrotation Yrotation
						End site
						{
							OFFSET 0.00000 0.00000 0.00000
						}
					}
				}
			}
		}
	}
}
MOTION
Frames: 4
Frame Time: 0.050000
-0.018736814921618085 0.019318988426453944 0.049060836058108244 0.024896730984570892 0.02439169384900779 0.022507399898256696 -3.216389626067063 8.54150812884957 -0.7016664888691805 -0.7657528471717825 3.1775867762024084 0.39769292617870083 -0.9228514144724911 0.2691327915584429 -1.7024520379014194 -0.0725772710279742 0.6105056758897435 -1.0487407463612406 -0.5758098767527547 8.782775827742954 0.2412403460488087 -0.2933992024366199 -1.1375807533113074 -2.45422327594567 -0.22303419302266483 -15.648549711227353 -0.14465452544291674 3.088702041391389 -0.01406847686218475 -9.895838740485404 60.9921771591259 2.414141570320192 22.136284958548853 6.438306928726736 4.357187338617357 98.17332046009419 16.161484532340623 -0.366922074667312 -5.578101739602382 4.482346987270618 -0.1298037598566546 -1.6422911712587038 -0.017617872190380687 -0.026164514469902346 -56.24871553109244 0.04016556159683264 0.04704472923649566 -56.23053714658472 -38.72938090307662 0.00033991640151114476 -0.049881275437202686 -0.004437745253538637 0.00863001319998525 0.027380489462062126 -0.00906631670903659 -0.02671552688639834 -0.0039061287747371187 -36.69226627701767 0.009699562215671845 0.032809214235941846 -0.01215779404066074 -0.02566345023290717 -0.02408827759770368 -0.01635520024372876 -0.007375681682386701 0.02267122257507624 -19.79646066887106 -0.0042558781265029854 0.014515691119987404 0.028147383386124727 -0.04759987457763764 -0.0009748967924793352 -0.027329727683985058 -0.002278184288815339 0.01743868936806592 24.019161203358898 0.03457701230107963 0.01216849252450133 28.85581302984131 -0.0021923557841579404 -0.027325182443533852 28.867149885595147 0.04876283633746997 0.04392710537325874 -0.23774795590245418 0.5085504236134686 8.756108867136565 -54.834014005889046 20.86546131102082 -32.37780185189267 16.341736646904327 -12.55308810873857 -105.6651329444737 -3.262872473610185 1.76023374664333 -4.071065974183554 -0.5203764631933621 0.01795621073797697 -8.141582811817614 -0.027553043446216792 -0.013883263257200506 44.55012358704494 0.046043388326959915 0.006346620778495274 44.59373474405436 12.481931751623627 0.028202537675812604 0.04337013651608802 -0.030974517723064234 -0.02098063454477663 -0.03332058480565522 -0.012938707192862591 0.028456625589472158 0.00215573520829774 11.102919201712592 0.03750322244496461 -0.008113001655957495 -0.00021642191634127888 -0.031292972102777865 0.030926566906151767 0.005999830709740458 0.03956388399846005 0.020600158857839113 4.7774289651606825 -0.021648250017896185 -0.003263906846102219 0.04230610571472313 -0.049198750014614205 -0.034122002971862464 -0.023357528460144113 0.013475685604697729 -0.03832122862875501 -5.617692951948611 -0.02335068859447036 -0.04791141822889061 -6.700531303325986 -0.047266235033530904 -0.043014492427831494 -6.730537530784194 0.020738289089905524 -0.013260513119354288 0.0015698037329333848 0.02726081268974383 -3.8857069122669506e-05 8.063848967350753 3.5065722253277367 -19.199666885578768 -0.021855316341588715 10.408430310631232 -0.029764320688262683 -5.62047120161754 -15.65622830913514 3.178022571625312 0.0443155973272807 -0.013094035294354475 -0.020311165184219042 0.021057089302893215 4.701814192913603 0.03280498628262264 12.450402099415342 -8.225476429840688 6.910847670763864 0.02164073752673539 46.38595606840301 -0.018259389312675078 -4.287569146600985 -14.7674487194851 -3.8400519685982974 -0.0169691546437639 -0.04898012504701033 0.0238049391224601 0.03526406452456613 -10.727022984481858 -0.0019821456135069564 
0.04586678335463064 0.035428922596556084 0.00787518305933945 -0.04846588088616786 -0.017010135099463815 0.007166932863058458 -3.357940747868264 8.747815354975952 -0.6536574482636676 -0.7628158355670588 3.1318106085253357 0.3978186042253755 -0.8641453414482606 0.21226050788248596 -1.6658703991526447 -0.1793945045377963 0.6031745328957947 -1.0186769812427259 -0.5318000437894334 8.813401166059 0.37075883863115455 -0.3015614218367661 -1.1040500450059045 -2.4280370345554605 -0.197151155299371 -15.539722899477415 -0.12945070042167345 3.1734127093829283 -0.0007869318217425605 -9.790783617576649 60.2691336537914 1.7769936681173746 22.31568173508871 4.825606369542976 3.856614453976108 98.47398508813876 16.300846496995973 -0.4358658445755868 -5.260478553548944 4.551662214206366 -0.14280820326995924 -1.6162799178430305 0.011238334231397522 0.022921873471217786 -56.187554131375784 -0.017569436538962844 -0.020221989111364903 -56.218064342579346 -38.7398875539039 -0.00034379149451334334 -0.018692613975507942 -0.012650336689761135 -0.024713900271360934 -0.0020156348330635254 -0.04292999646065751 0.048904099690552275 -0.0046567867306674 -36.71419032244257 -0.01563761914164019 -0.027978621117566094 0.02221524751778714 -0.022728290077230068 -0.03087498612181848 -0.04578242887396462 -0.03726032476049413 0.006768635794583678 -19.745075593310606 0.04785906266354963 -0.002902608013694549 -0.011427051788236295 -0.016764606537131164 0.011563180426303027 0.029940206921715957 -0.03277783385042767 0.015037652456892103 24.018669629186544 0.005970180554402623 0.04857402569382641 28.88918258673532 0.00995118727038328 0.03937501367241129 28.909402266203774 0.005400133512200181 -0.011069683703749885 -0.28960331153455987 0.547238210766792 8.854835264091303 -53.81507681740271 20.4051501188606 -32.74081396054969 21.08675058560403 -13.97534252512714 -107.22632362459665 -2.6073543923050475 2.3041836184239632 -4.903260976166137 -0.4680304080467404 0.09771899605199831 -8.138593253705341 -0.02418282857467569 -0.039305577454166296 44.57480790405302 0.02215848420772589 0.04415878589783101 44.55203965329697 12.457914865280998 -0.031470224649307744 0.007842225675821001 -0.002696283695684689 -0.0095560900789386 -0.02539612915343811 0.027482565017206705 0.04354926663281634 -0.019997455148804577 11.073316095748622 -0.0469855290748111 0.01971414665300329 0.04955755979856979 0.00254253858787511 0.03458533886659792 0.0023582072657751174 -0.012799473911631585 -0.001675076080115871 4.7704723722050435 0.005584966491268004 -0.015185409549243748 -0.028476306001190218 0.04205530108372165 -0.049140159344304844 0.018482540314126463 0.04798527133150568 0.014443416613519755 -5.5841090510765365 -0.03382960090640227 0.03432306076967898 -6.682320943583039 -0.02037473569464909 -0.009046093225638235 -6.746036822262066 0.0009360043121530218 -0.041909891233532094 0.041815379002203196 0.01594532687208569 0.02886358213334459 8.027887339920396 3.496906883382863 -19.235287591592737 -0.0012853663901268662 10.443312772749078 0.0428734646393097 -5.612176957870622 -15.63500465485983 3.1551482101141253 0.04237843385643964 -0.04887902926737548 0.003453236149739173 0.010645499500924643 4.692329446246626 0.02217000531235999 12.50040406582892 -8.202707277886553 6.930521979954439 -0.023141956126484738 46.378057287139406 0.03691174219018118 -4.291907236969014 -14.772463384028399 -3.852327829283386 -0.024289855798609827 -0.032130599460140796 -0.04786275555908384 -0.02564025645021482 -10.736351274579569 -0.005063603644727598 
0.02679327287943863 -0.02760729882887766 -0.023729767732378365 -0.028495302350469195 0.028182776598156906 0.011463631971138408 -3.391806231424714 8.74440092217402 -0.6019172801109901 -0.793887036936419 3.1587400138682096 0.3825510089439929 -0.9016787573482444 0.21793872289395994 -1.6736603172535447 -0.20758253949297917 0.6268618186038005 -1.0888678886732757 -0.534424951454211 8.798077316799146 0.3619547739880553 -0.28464867440678604 -1.1591330132257502 -2.4090128548626315 -0.2857323465881429 -15.504490778073196 -0.08745831456472186 3.143822860475159 0.018499803550316544 -9.813644155707529 59.64860648344804 1.3403767378259115 22.410725562345323 3.6047053194893337 3.3691874418677767 98.56478956016294 16.399224347513474 -0.4384918267228063 -5.041717084063593 4.533624756493426 -0.1386314444387868 -1.6125583188185921 -5.4739063382732404e-05 0.01348635181921533 -56.22608813434706 0.01877705412480344 -0.04972384216721184 -56.20985361913661 -38.73526716926524 0.015448725944861706 -0.03334468908980717 -0.03913449167145813 -0.0008705377105365866 0.020362071245173953 0.049574622912075324 0.04915074541364237 -0.023535769354741408 -36.682532568247616 0.045390217523196066 0.03937547264583016 0.025620687522410705 -0.020545680104152756 -0.03661648698912221 0.011293337481361758 0.0016124292694853887 -0.045212858839165794 -19.75896498985476 -0.01868253228574222 -0.02226182714413857 -0.03404386341072736 0.04080105748491182 0.03492192714393602 -0.009343493967565406 0.02162609815585094 0.03768465156065514 24.073780728751128 0.03052388684253304 0.01765097094558661 28.83872120726411 0.0016406161537755929 -0.0355779395105651 28.885005985096523 0.030580800285341072 -0.04278101914604732 -0.21425656134408821 0.5446403580133666 8.86522809538175 -52.81157836738858 20.10831789721896 -32.925933177534404 25.003107804406888 -15.18432965402204 -108.31605504768258 -2.125463581739217 2.7925853713518745 -5.639820938277154 -0.4847910829188048 0.072472235301629 -8.105411774868996 -0.047541673212885285 -0.033073854076191504 44.60117444929504 -0.010838987981173828 -0.043793906670192874 44.55637262011767 12.454511116146218 -0.03627561330215391 0.04506349996090679 0.043464646377445564 -0.011346864886294274 0.04177565825582096 0.01630876047426883 -0.030304055010583524 -0.006356522186067003 11.063920562890832 -0.016802361891256137 0.019821589209916928 0.043368841721549596 -0.024413643463708834 0.017075240223855894 -0.016871003791897352 0.016992442351179967 0.015605942145038822 4.762017813650511 0.009281570520305243 -0.010272288462005102 -0.012071914493048168 -0.028925121485801793 -0.006161139569437942 0.003996495957130885 0.047191342336733104 0.013200509399037356 -5.590924616463575 0.01243963019305574 -0.0251075225499649 -6.707552989191883 0.014678112898185068 -0.03772326731456163 -6.682564801349777 -0.037550349128160444 -0.021491679622858716 0.009099206565496757 0.04565220338990764 -0.03583613801220415 8.064893626870964 3.485124278174222 -19.17155295248857 -0.02665515693968463 10.415858929878661 -0.011537549832736995 -5.633051860010184 -15.611491466066646 3.193745945185145 -0.023522424891576223 0.0035622533836035834 -0.005753948636794642 -0.03158610651455571 4.677954594373735 0.011619007999634381 12.495698902296944 -8.273324973813867 6.8511796214552945 0.01531608200910411 46.40585819266306 0.047118063333354734 -4.364479535201241 -14.72682359203759 -3.872535588277653 -0.035015841639723336 -0.03833171656295588 -0.02954932630402226 0.02906474479558298 -10.709073824597176 -0.009545433668149528 
-0.012365422368368103 0.04966773627406045 -0.0033241787526853183 0.018266211619232947 0.043479709472651666 -0.0009986118175883255 -3.3219302193768097 8.784579098890855 -0.6088355689376306 -0.7824889020070619 3.1349522399296355 0.37666237354341675 -0.8781600931386031 0.19153227006600404 -1.704926084302993 -0.22277129941402407 0.5981891120151155 -1.105767579346712 -0.5133381060742794 8.848650020681744 0.33922953198586264 -0.26899563758960415 -1.071272963832177 -2.410210862539718 -0.24738771615952915 -15.52594551067304 -0.07560561340675692 3.103293847128508 0.09574328709711784 -9.808082235426676 59.369032017194094 1.3131553797450135 22.976721900298745 2.824936548276593 3.0438671839508635 98.31068952984707 16.44141864386847 -0.42040942908186457 -4.881402062159367 4.509293119308573 -0.10834652757186754 -1.5437704323266064 0.0278296484704736 0.017825895684694188 -56.23010897999748 -0.020635628737534616 -0.02909091892533855 -56.23845085613582 -38.729664631073064 -0.010917979536337117 -0.026968838764533355 0.021765673848028414 -0.048933608314649144 0.03463589555743112 0.02312167698271205 0.02903553419780272 -0.004815206093122667 -36.67211262616462 0.022885618455249796 -0.02939532361049085 0.025919179282941244 0.04410504517943902 -0.026007401146021535 0.047915698881737495 -0.01787554039826076 0.04380731424207983 -19.756441181113146 0.005347244831094056 -0.01885823230306296 0.018836357954392244 0.018129865557162315 0.00033208803309076523 -0.01570718551890589 -0.03528634239762888 -0.011323728006050294 24.035644997073533 -0.005852551276992477 0.020935190124971168 28.850565612947047 -0.010644528534944351 0.04448278081887992 28.85247718389615 0.04096374717080644 -0.013927352725920859 -0.2061074655429126 0.5514132032004673 8.864369302962945 -52.434218328140375 20.087864507055404 -33.2947568099619 27.03888306278191 -15.785170894914653 -108.41588166953208 -1.9986051887480178 3.0848355749285075 -5.967166788195549 -0.45315397785678696 0.03691869762885795 -8.166943728017088 0.024359974958714458 -0.006909395083736652 44.588820170094316 0.011242477008851223 -0.0415581999362415 44.52220771385995 12.446296841090783 0.019365221490616688 0.020763100865628877 0.011656127082032184 0.015353470070691369 -0.01960463496840087 0.048134436479294135 0.04564949566051612 0.0038434438474262054 11.148080302046486 0.006328662249072637 -0.007201516249269737 -0.0031100481625681627 -0.018575220926585236 0.0027325319936037634 0.009679026125787527 0.017670268457955725 -0.009586777389713905 4.778026389147246 -0.01883634713454017 -0.044210498118290156 0.008885640712250106 0.0042948191067064346 -0.04163001236829027 -0.04098464512931884 -0.0036619256578758665 0.034259811042376534 -5.608127101330348 0.01757883762402788 -0.025206390894616893 -6.679086142252467 -0.013943782008425346 0.014154141258368709 -6.722201642938497 0.039707588987921226 -0.03906496094523687 -0.0008585562776561286 -0.03032176716921071 0.018628388677052268 8.023270988395392 3.4599907228155873 -19.215670194800875 -0.021723602210131563 10.436719891736454 -0.03417006550209073 -5.647722431453322 -15.687933491228227 3.163101652950962 -0.04991922311469075 -0.03997837974949968 -0.013985404535472958 -0.022164442342768213 4.6817860072343835 0.03252807391280044 12.42235115735829 -8.211283437927035 6.895665823309374 0.010109063044069095 46.345352352800475 -0.026351152904972745 -4.319796828144236 -14.71896900786803 -3.8718754489214824 0.028995057200386472 0.013490134360734339 -0.02630922529473206 -0.04771724058217965 -10.766338032914454 -0.04303158834353417 
